<svg width="938" height="208" viewBox="0 0 938 208" fill="none" xmlns="http://www.w3.org/2000/svg">
<rect x="3.5" y="3.5" width="201" height="201" rx="18.5" fill="#F3A1BD" stroke="black" stroke-width="7"/>
<path d="M85.0588 117.804C85.3571 119.836 83.9516 121.725 81.9196 122.023C79.8875 122.321 77.9985 120.916 77.7002 118.884C77.0602 114.524 73.898 111.437 70.3775 111.437C66.8569 111.437 63.6947 114.524 63.0548 118.884C62.7565 120.916 60.8674 122.321 58.8353 122.023C56.8033 121.725 55.3979 119.836 55.6962 117.804C56.8464 109.968 62.9601 104 70.3775 104C77.7948 104 83.9086 109.968 85.0588 117.804Z" fill="black"/>
<path d="M151.996 117.804C152.295 119.836 150.889 121.725 148.857 122.023C146.825 122.321 144.936 120.916 144.638 118.884C143.998 114.524 140.835 111.437 137.315 111.437C133.794 111.437 130.632 114.524 129.992 118.884C129.694 120.916 127.805 122.321 125.773 122.023C123.741 121.725 122.335 119.836 122.634 117.804C123.784 109.968 129.898 104 137.315 104C144.732 104 150.846 109.968 151.996 117.804Z" fill="black"/>
<path d="M136.198 140.552C136.79 138.585 138.864 137.471 140.83 138.063C142.797 138.655 143.911 140.729 143.319 142.695C138.316 159.318 122.333 170.938 104 170.938C85.6668 170.938 69.6844 159.318 64.6807 142.695C64.0887 140.729 65.203 138.655 67.1697 138.063C69.1363 137.471 71.2105 138.585 71.8025 140.552C75.8509 154 88.9172 163.5 104 163.5C119.083 163.5 132.149 154 136.198 140.552Z" fill="black"/>
<path d="M112.563 169.757C110.867 170.916 108.553 170.48 107.395 168.785C107.084 168.329 106.836 167.837 106.655 167.315C106.156 165.876 106.585 164.279 107.738 163.283C113.284 158.492 115.591 150.424 114.409 138.701C114.282 137.438 114.325 136.164 114.538 134.912C115.847 127.211 123.152 122.029 130.853 123.339C131.939 123.523 133.003 123.821 134.027 124.228C140.539 126.812 144.516 133.345 143.931 140.223C143.757 142.27 141.957 143.787 139.911 143.613C137.864 143.439 136.346 141.639 136.52 139.593C136.829 135.962 134.726 132.506 131.284 131.141C130.743 130.926 130.181 130.769 129.607 130.671C125.955 130.05 122.491 132.507 121.87 136.159C121.769 136.752 121.749 137.357 121.809 137.956C123.117 150.933 120.612 160.887 114.091 167.514C113.89 168.396 113.369 169.207 112.563 169.757Z" fill="black"/>
<path d="M360.453 48.9H331.356L297.135 105.813L262.914 48.9H231.438L281.031 131.25V177H310.677V131.616L360.453 48.9ZM417.003 179.196C453.42 179.196 475.014 158.334 475.014 120.636V48.9H445.734V119.538C445.734 143.877 435.303 153.942 417.186 153.942C399.252 153.942 388.638 143.877 388.638 119.538V48.9H358.992V120.636C358.992 158.334 380.586 179.196 417.003 179.196ZM637.717 177L637.351 48.9H613.012L565.798 128.505L517.852 48.9H493.33V177H521.146V101.787L558.661 163.458H572.02L609.718 100.14L609.901 177H637.717ZM801.516 177L801.15 48.9H776.811L729.597 128.505L681.651 48.9H657.129V177H684.945V101.787L722.46 163.458H735.819L773.517 100.14L773.7 177H801.516ZM932.192 48.9H903.095L868.874 105.813L834.653 48.9H803.177L852.77 131.25V177H882.416V131.616L932.192 48.9Z" fill="black"/>
</svg>
